Coordinates
version=1
nRows=14
nColumns=40
inDegrees=yes

Units are S.I. units (second, meters, Newtons, ...)
Angles are in degrees.

endheader
time	pelvis_tilt	pelvis_list	pelvis_rotation	pelvis_tx	pelvis_ty	pelvis_tz	hip_flexion_r	hip_adduction_r	hip_rotation_r	knee_angle_r	knee_angle_r_beta	ankle_angle_r	subtalar_angle_r	mtp_angle_r	hip_flexion_l	hip_adduction_l	hip_rotation_l	knee_angle_l	knee_angle_l_beta	ankle_angle_l	subtalar_angle_l	mtp_angle_l	lumbar_extension	lumbar_bending	lumbar_rotation	arm_flex_r	arm_add_r	arm_rot_r	elbow_flex_r	pro_sup_r	wrist_flex_r	wrist_dev_r	arm_flex_l	arm_add_l	arm_rot_l	elbow_flex_l	pro_sup_l	wrist_flex_l	wrist_dev_l
     26.41314286	     -3.33672853	     -3.94371448	     -4.97114159	      1.08769601	      0.92949379	      0.46348305	     23.66991433	     -0.46293587	    -12.10970484	     12.00664264	     12.00664264	      2.00361706	      8.06615952	      6.68988783	      3.78775716	     -5.93722822	     -9.64700893	     16.25268743	     16.25268743	     15.78125325	    -10.96598709	     -4.45872083	    -10.11242493	      4.91708885	      1.98780747	    -10.34219122	    -13.38161047	     -8.07096719	     23.17954839	     47.08442199	      0.00000000	      0.00000000	     23.54203379	    -20.33534570	     -6.36816809	     68.18008672	     46.76141402	      0.00000000	      0.00000000
     26.42628571	     -3.47087043	     -4.06180689	     -4.89351120	      1.08938954	      0.92862078	      0.46587168	     23.17339622	     -0.14855314	    -12.45108740	     12.44559246	     12.44559246	      2.00596959	      7.64967612	      6.23365692	      3.31981814	     -6.18736691	     -9.57858229	     16.04673215	     16.04673215	     16.10522004	    -10.86218372	     -4.45252230	     -9.81536118	      5.10716355	      1.86073978	    -10.61824501	    -13.37786832	     -8.07287535	     23.21128447	     47.07810933	      0.00000000	      0.00000000	     23.41968521	    -20.09020961	     -6.34312912	     68.18066851	     46.76230175	      0.00000000	      0.00000000
     26.43942857	     -3.52595949	     -4.18638765	     -4.85465455	      1.09122839	      0.92781395	      0.46847792	     22.61057125	      0.16778723	    -12.59471130	     13.03781444	     13.03781444	      2.11327254	      7.19116661	      5.67153746	      2.74866037	     -6.45078961	     -9.52741077	     15.84791108	     15.84791108	     16.43905568	    -10.74120236	     -4.38682080	     -9.60043765	      5.28396748	      1.78773267	    -10.75468004	    -13.36315815	     -8.07179493	     23.28489594	     47.07136178	      0.00000000	      0.00000000	     23.25042380	    -19.75765259	     -6.30296375	     68.16023263	     46.76081306	      0.00000000	      0.00000000
     26.45257143	     -3.40315557	     -4.20667286	     -4.80061009	      1.09327662	      0.92696390	      0.47134560	     21.78076794	      0.53292621	    -11.73627175	     13.24700525	     13.24700525	     -0.03362521	      5.02777520	     -1.70652032	      2.12814162	     -6.70636256	     -9.94881731	     16.05382807	     16.05382807	     18.03287333	     -9.43761873	     -2.04359219	     -9.58722890	      5.30106102	      2.12159673	    -11.58133187	    -13.40411861	     -7.98960517	     25.05138777	     46.93666576	      0.00000000	      0.00000000	     23.41002451	    -18.92674255	     -6.90709124	     67.79303669	     46.86118368	      0.00000000	      0.00000000
     26.46571429	     -3.34534737	     -4.35658775	     -4.70293497	      1.09519619	      0.92624449	      0.47416872	     21.31553814	      0.80629003	    -11.69358024	     14.16228255	     14.16228255	      0.39163904	      4.51522372	     -2.31617742	      1.58362136	     -7.02887154	     -9.82438963	     16.11589005	     16.11589005	     18.40089825	     -9.47583661	     -1.80183063	     -9.50816631	      5.47716108	      2.07593534	    -11.37931663	    -13.37440396	     -7.93256853	     25.13041141	     46.92457696	      0.00000000	      0.00000000	     23.11587760	    -18.61325558	     -6.73401898	     67.64916735	     46.85365179	      0.00000000	      0.00000000
     26.47885714	     -3.29377406	     -4.59188929	     -4.56191984	      1.09705175	      0.92558853	      0.47718953	     20.81131116	      1.24047190	    -11.29635636	     14.78703769	     14.78703769	      0.37812487	      3.48581861	     -4.06076465	      1.31750277	     -7.53192297	     -9.68184187	     16.75637083	     16.75637083	     19.58633871	     -9.16268208	      0.28757133	     -9.41406921	      5.72676431	      2.08134258	    -11.14677346	    -13.40252309	     -7.72202387	     25.36263449	     46.86201820	      0.00000000	      0.00000000	     22.83083591	    -18.11731975	     -6.79797434	     67.22098276	     46.90794088	      0.00000000	      0.00000000
     26.49200000	     -3.16169648	     -4.84053685	     -4.43052095	      1.09877185	      0.92512161	      0.48024150	     20.37238606	      1.61122692	    -11.19245532	     15.57739396	     15.57739396	      1.02740424	      3.11335906	     -4.44918880	      1.03636795	     -8.03752582	     -9.41018802	     17.42104749	     17.42104749	     19.81492658	     -9.51689258	      0.34217220	     -9.48127015	      6.00444840	      2.08524434	    -10.64856800	    -13.38749447	     -7.71135894	     25.55698018	     46.85414216	      0.00000000	      0.00000000	     22.40377144	    -17.71119729	     -6.68960091	     66.96794692	     46.89795142	      0.00000000	      0.00000000
     26.50514286	     -3.08214720	     -5.08481067	     -4.26318209	      1.10026479	      0.92467470	      0.48335730	     20.11049759	      1.97951872	    -11.01300593	     16.39905932	     16.39905932	      1.70878290	      2.57148169	     -4.83591593	      1.12902299	     -8.59783315	     -9.00529827	     18.62669251	     18.62669251	     20.02158549	    -10.11505264	      0.51839639	     -9.48806120	      6.26267999	      2.05684931	     -9.99272926	    -13.36350164	     -7.70634120	     25.81676249	     46.84433286	      0.00000000	      0.00000000	     21.92417412	    -17.28522451	     -6.66113734	     66.53147928	     46.89173918	      0.00000000	      0.00000000
     26.51828571	     -2.97770760	     -5.32978512	     -4.08732547	      1.10161150	      0.92442170	      0.48652456	     19.85278703	      2.34829754	    -10.85700841	     17.12996834	     17.12996834	      2.39939575	      2.09900330	     -5.15974392	      1.45740652	     -9.19518031	     -8.49512062	     20.28468462	     20.28468462	     20.11646533	    -10.89916140	      0.69582695	     -9.52881850	      6.52379477	      2.03256375	     -9.18801254	    -13.33596257	     -7.70288994	     26.12102168	     46.83381356	      0.00000000	      0.00000000	     21.38576775	    -16.80676666	     -6.67285460	     65.95103571	     46.88582562	      0.00000000	      0.00000000
     26.53142857	     -2.80228884	     -5.57699777	     -3.89253726	      1.10280883	      0.92440031	      0.48972711	     19.52804359	      2.70944488	    -10.80879874	     17.77227149	     17.77227149	      3.12440678	      1.76639223	     -5.44177617	      1.97246345	     -9.82770292	     -7.91961658	     22.38496039	     22.38496039	     20.02307388	    -11.84389265	      0.71370031	     -9.67608623	      6.74335429	      2.04099147	     -8.25542264	    -13.33881395	     -7.70291291	     26.46539773	     46.82385429	      0.00000000	      0.00000000	     20.85083650	    -16.34638266	     -6.68435681	     65.31179837	     46.87767134	      0.00000000	      0.00000000
     26.54457143	     -2.79582651	     -5.76567575	     -3.65718112	      1.10372391	      0.92424416	      0.49283200	     19.41595944	      3.00253135	    -10.83520248	     18.36825928	     18.36825928	      3.82420069	      1.43445542	     -5.61046746	      3.05204664	    -10.43244159	     -7.16678347	     25.09005781	     25.09005781	     19.71421078	    -12.99591507	      0.65178254	     -9.59781948	      6.95149275	      1.95643344	     -7.20130476	    -13.28941819	     -7.69951953	     26.87056195	     46.81012984	      0.00000000	      0.00000000	     20.16975961	    -15.81740093	     -6.77980825	     64.34071898	     46.87132653	      0.00000000	      0.00000000
     26.55771429	     -2.58986137	     -5.98125718	     -3.40421996	      1.10458502	      0.92443229	      0.49594980	     19.04944645	      3.30500660	    -10.97273100	     18.87605446	     18.87605446	      4.51254051	      1.27279356	     -5.75488282	      4.13690632	    -11.07698604	     -6.40538241	     28.16447286	     28.16447286	     19.15280355	    -14.16438744	      0.42113407	     -9.75976779	      7.14369342	      1.94984021	     -6.04667561	    -13.31389953	     -7.69651730	     27.31526887	     46.79665829	      0.00000000	      0.00000000	     19.58735000	    -15.33416232	     -6.84863100	     63.41132981	     46.86294249	      0.00000000	      0.00000000
     26.57085714	     -2.43375883	     -6.15218111	     -3.13873047	      1.10525120	      0.92459852	      0.49892339	     18.70151500	      3.56158863	    -11.16053765	     19.28488506	     19.28488506	      5.20541389	      1.19236977	     -5.87278932	      5.52329071	    -11.67180616	     -5.59300981	     31.59400389	     31.59400389	     18.33752706	    -15.31521601	      0.11476112	     -9.87889246	      7.29835025	      1.94660938	     -4.81169426	    -13.34441935	     -7.68829030	     27.82505078	     46.78059903	      0.00000000	      0.00000000	     18.91627990	    -14.83457378	     -6.91439651	     62.32886041	     46.85108787	      0.00000000	      0.00000000
     26.58400000	     -2.35947619	     -6.22676097	     -2.88069123	      1.10571449	      0.92463935	      0.50180946	     18.49015686	      3.70413497	    -11.37221626	     19.77360764	     19.77360764	      5.94970349	      1.18071487	     -5.77949133	      7.21390668	    -12.14827471	     -4.73060768	     35.30771899	     35.30771899	     17.28750555	    -16.43704579	     -0.09482634	     -9.84898177	      7.33827964	      1.81649385	     -3.40313608	    -13.38201376	     -7.61867192	     28.49508771	     46.74768340	      0.00000000	      0.00000000	     18.38366970	    -14.31675600	     -7.31908018	     60.41839779	     46.85940573	      0.00000000	      0.00000000
